<svg width="72" height="72" viewBox="0 0 72 72" fill="none" xmlns="http://www.w3.org/2000/svg">
<path d="M63.8702 41.7L54.0002 36L63.8702 30.3C65.3102 29.46 65.7902 27.63 64.9802 26.19L58.9802 15.81C58.1402 14.37 56.3102 13.89 54.8702 14.7L45.0002 20.4V9C45.0002 7.35 43.6502 6 42.0002 6H30.0002C28.3502 6 27.0002 7.35 27.0002 9V20.4L17.1302 14.7C15.6902 13.89 13.8602 14.37 13.0202 15.81L7.02017 26.19C6.18017 27.63 6.69017 29.46 8.13017 30.3L18.0002 36L8.13017 41.7C6.69017 42.54 6.21017 44.37 7.02017 45.81L13.0202 56.19C13.8602 57.63 15.6902 58.11 17.1302 57.3L27.0002 51.6V63C27.0002 64.65 28.3502 66 30.0002 66H42.0002C43.6502 66 45.0002 64.65 45.0002 63V51.6L54.8702 57.3C56.3102 58.14 58.1402 57.63 58.9802 56.19L64.9802 45.81C65.8202 44.37 65.3102 42.54 63.8702 41.7ZM55.2902 50.61L41.2502 42.51C40.2602 41.91 39.0002 42.63 39.0002 43.8V60H33.0002V43.8C33.0002 42.66 31.7402 41.91 30.7502 42.51L16.7102 50.61L13.7102 45.42L27.7502 37.32C28.7402 36.75 28.7402 35.31 27.7502 34.71L13.7102 26.61L16.7102 21.42L30.7502 29.52C31.7402 30.09 33.0002 29.37 33.0002 28.2V12H39.0002V28.2C39.0002 29.34 40.2602 30.09 41.2502 29.49L55.2902 21.39L58.2902 26.58L44.2502 34.68C43.2602 35.25 43.2602 36.69 44.2502 37.29L58.2902 45.39L55.2902 50.61Z" fill="#AD1220"/>
</svg>
