<?xml version="1.0" encoding="UTF-8"?><svg id="Layer_1" xmlns="http://www.w3.org/2000/svg" viewBox="0 0 40 40"><defs><style>.cls-1{fill:#ad1220;stroke-width:0px;}</style></defs><path class="cls-1" d="m20,36.95c.64,0,1.25-.03,1.85-.1s1.18-.17,1.75-.31l-2.55-3.84h-7.4v-2.12c0-1.16.41-2.16,1.24-2.99.83-.83,1.82-1.24,2.98-1.24h4.23v-6.35h-4.2c-.57,0-1.07-.22-1.5-.65s-.65-.93-.65-1.5v-4.25h-.94c-.91,0-1.68-.31-2.33-.93s-.98-1.38-.98-2.3c0-.32.05-.63.15-.95s.23-.61.4-.88l3.3-4.85c-3.57,1-6.51,2.99-8.83,5.97-2.32,2.98-3.48,6.42-3.48,10.33h2.1v-2.15c0-.57.21-1.06.63-1.48s.91-.63,1.48-.63h4.25c.57,0,1.07.21,1.5.63s.65.91.65,1.48v2.15c0,.57-.22,1.06-.65,1.48s-.93.63-1.5.63v2.14c0,1.18-.42,2.17-1.25,2.99s-1.83,1.23-2.99,1.23h-1.96c1.5,2.57,3.54,4.63,6.12,6.18s5.44,2.33,8.58,2.33Zm16.1-11.75c.27-.83.48-1.68.63-2.55s.23-1.76.23-2.67c0-3.95-1.2-7.44-3.6-10.46-2.4-3.02-5.43-5.01-9.1-5.97v5.83c1.17,0,2.17.41,3,1.24.83.83,1.25,1.83,1.25,2.99v4.24c.67,0,1.28.09,1.83.28s1.06.51,1.53.98l4.25,6.1Zm-16.09,14.8c-2.76,0-5.35-.53-7.78-1.58s-4.55-2.48-6.36-4.3-3.25-3.94-4.3-6.37c-1.05-2.43-1.58-5.02-1.58-7.78s.53-5.35,1.58-7.78c1.05-2.43,2.48-4.54,4.3-6.34s3.94-3.23,6.37-4.28c2.43-1.05,5.02-1.58,7.78-1.58s5.35.53,7.78,1.58c2.43,1.05,4.54,2.48,6.34,4.28s3.23,3.92,4.28,6.35,1.58,5.03,1.58,7.79-.53,5.35-1.58,7.78-2.48,4.54-4.28,6.35-3.92,3.24-6.35,4.3c-2.43,1.06-5.03,1.58-7.79,1.58Z"/></svg>