<svg width="73" height="72" viewBox="0 0 73 72" fill="none" xmlns="http://www.w3.org/2000/svg">
<path d="M60.5 24H51.5V12H9.5C6.2 12 3.5 14.7 3.5 18V51H9.5C9.5 55.98 13.52 60 18.5 60C23.48 60 27.5 55.98 27.5 51H45.5C45.5 55.98 49.52 60 54.5 60C59.48 60 63.5 55.98 63.5 51H69.5V36L60.5 24ZM59 28.5L64.88 36H51.5V28.5H59ZM18.5 54C16.85 54 15.5 52.65 15.5 51C15.5 49.35 16.85 48 18.5 48C20.15 48 21.5 49.35 21.5 51C21.5 52.65 20.15 54 18.5 54ZM25.16 45C23.51 43.17 21.17 42 18.5 42C15.83 42 13.49 43.17 11.84 45H9.5V18H45.5V45H25.16ZM54.5 54C52.85 54 51.5 52.65 51.5 51C51.5 49.35 52.85 48 54.5 48C56.15 48 57.5 49.35 57.5 51C57.5 52.65 56.15 54 54.5 54Z" fill="#AD1220"/>
</svg>
