<svg width="73" height="72" viewBox="0 0 73 72" fill="none" xmlns="http://www.w3.org/2000/svg">
<path d="M36.5 33C40.49 33 48.5 35.01 48.5 39V39.48C45.59 42.84 41.3 45 36.5 45C31.7 45 27.41 42.84 24.5 39.48V39C24.5 35.01 32.51 33 36.5 33ZM36.5 30C33.2 30 30.5 27.3 30.5 24C30.5 20.7 33.2 18 36.5 18C39.8 18 42.5 20.7 42.5 24C42.5 27.3 39.8 30 36.5 30ZM54.5 30.6C54.5 19.71 46.55 12 36.5 12C26.45 12 18.5 19.71 18.5 30.6C18.5 37.62 24.35 46.92 36.5 58.02C48.65 46.92 54.5 37.62 54.5 30.6ZM36.5 6C49.1 6 60.5 15.66 60.5 30.6C60.5 40.56 52.49 52.35 36.5 66C20.51 52.35 12.5 40.56 12.5 30.6C12.5 15.66 23.9 6 36.5 6Z" fill="#AD1220"/>
</svg>
